inDegrees=yes
name=ik_S44_A08_T02
DataType=double
version=3
OpenSimVersion=4.3-2021-08-27-4bc7ad9
endheader
time	pelvis_tilt	pelvis_list	pelvis_rotation	pelvis_tx	pelvis_ty	pelvis_tz	hip_flexion_r	hip_adduction_r	hip_rotation_r	knee_angle_r	knee_angle_r_beta	ankle_angle_r	subtalar_angle_r	mtp_angle_r	hip_flexion_l	hip_adduction_l	hip_rotation_l	knee_angle_l	knee_angle_l_beta	ankle_angle_l	subtalar_angle_l	mtp_angle_l	lumbar_extension	lumbar_bending	lumbar_rotation	arm_flex_r	arm_add_r	arm_rot_r	elbow_flex_r	pro_sup_r	wrist_flex_r	wrist_dev_r	arm_flex_l	arm_add_l	arm_rot_l	elbow_flex_l	pro_sup_l	wrist_flex_l	wrist_dev_l
13.5999999999998	-7.397515150216572	-2.523354951273304	34.72039397138818	0	0.9399999999999999	0	35.64114406551886	-10.2159928862224	-9.84164037601481	38.07296921308497	0.6644986687787672	0	0	0	35.64114406551886	-10.2159928862224	-9.84164037601481	38.07296921308497	0.6644986687787672	0	0	0	-6.67625247803235	-1.594046883571667	1.085706425028584	38.22955847363416	-2.422583019443096	3.541669465484622	30.76314740472156	136.2772760003666	0	0	76.35299659877109	-1.893613822495691	-1.320023564591941	74.16292519711332	94.03730940851041	0	0
13.6199999999998	-7.420070757034378	-2.503773422144925	34.77887833505241	0	0.9399999999999999	0	35.64759998106859	-10.2154897782488	-9.841878492914523	38.08135257027792	0.664644985964155	0	0	0	35.64759998106859	-10.2154897782488	-9.841878492914523	38.08135257027792	0.664644985964155	0	0	0	-6.68560515218829	-1.55693859972463	1.050218854209634	38.24551771785635	-2.472185684791346	3.541896294198223	30.80171672504756	136.2529940508222	0	0	76.46658129413746	-1.553225149649545	-1.591725302339936	71.56102138922	94.64333287973615	0	0
13.6399999999998	-7.423857714798202	-2.467382660491533	34.80928008998528	0	0.9399999999999999	0	35.65403961672995	-10.21498814293784	-9.842116008280975	38.0897073894739	0.6647908050675337	0	0	0	35.65403961672995	-10.21498814293784	-9.842116008280975	38.0897073894739	0.6647908050675337	0	0	0	-6.668462359543191	-1.520886073032685	1.037349676676857	38.27971189690684	-2.510256055092173	3.439357351647316	30.74951116493724	136.3694135744574	0	0	76.56540182771306	-1.222317842743847	-2.114704428482832	68.94939917258334	95.1007553962753	0	0
13.6599999999998	-7.430297604680388	-2.454943236630434	34.83941542166057	0	0.9399999999999999	0	35.66031284776703	-10.21449779670409	-9.842347968511294	38.09781150872884	0.6649322486315066	0	0	0	35.66031284776703	-10.21449779670409	-9.842347968511294	38.09781150872884	0.6649322486315066	0	0	0	-6.668301499797359	-1.498121991062999	0.9908162507697669	38.29604878516513	-2.483467323624863	3.479925978113991	30.72831433713421	136.3536097801326	0	0	76.71435776816034	-0.8452528094550461	-2.691438982434678	66.1745610551565	95.56379630310597	0	0
13.6799999999998	-7.44963715917353	-2.423966622949662	34.7020588098224	0	0.9399999999999999	0	35.66686620258665	-10.21398892806038	-9.842589306249307	38.10631555625507	0.6650806722605854	0	0	0	35.66686620258665	-10.21398892806038	-9.842589306249307	38.10631555625507	0.6650806722605854	0	0	0	-6.663008686924348	-1.476440142944663	1.116229811302233	38.32017582066151	-2.472690332298701	3.594631252748566	30.72040794781124	136.2500333881011	0	0	76.84634990068156	-0.4021975775525644	-2.943592715629698	64.54203472132697	96.08001519877519	0	0
13.6999999999998	-7.474434244563974	-2.385082151701096	34.56773197845234	0	0.9399999999999999	0	35.67383068944349	-10.21345363155305	-9.842844143850721	38.11542200530638	0.6652396097796959	0	0	0	35.67383068944349	-10.21345363155305	-9.842844143850721	38.11542200530638	0.6652396097796959	0	0	0	-6.658594509505228	-1.441195239796847	1.248558958103871	38.34372128243496	-2.498605291441194	3.689715651007021	30.70790212242996	136.1777410811791	0	0	77.0673559498472	0.1352533091419033	-3.294018935806477	61.50458259924447	96.98414178326328	0	0
13.7199999999998	-7.488754932261114	-2.372658083616408	34.60799571278283	0	0.9399999999999999	0	35.67971498649796	-10.21300440601033	-9.843058563735852	38.12315124010333	0.6653745103755623	0	0	0	35.67971498649796	-10.21300440601033	-9.843058563735852	38.12315124010333	0.6653745103755623	0	0	0	-6.663813069380546	-1.415329787924828	1.202836136188252	38.39141626010851	-2.476019249191416	3.702632077055183	30.71628881652324	136.1542379803372	0	0	77.44004703598166	0.572417676539414	-3.856391023630529	58.37052342657672	97.91840780157351	0	0
13.7399999999998	-7.52527328030895	-2.330346539938134	34.3199544438304	0	0.9399999999999999	0	35.68641571598108	-10.21249294877797	-9.843302764273245	38.13194395641441	0.6655279722253845	0	0	0	35.68641571598108	-10.21249294877797	-9.843302764273245	38.13194395641441	0.6655279722253845	0	0	0	-6.667410200113039	-1.379950369834112	1.450385939088401	38.45960595877667	-2.470294711828582	3.695402705595746	30.70724347769912	136.2602700627891	0	0	77.817179258203	1.063972296552986	-4.421491204760825	55.09198881775452	98.89238494596363	0	0
13.7599999999998	-7.540077773230831	-2.308458712004898	33.94279738200046	0	0.9399999999999999	0	35.69244792071071	-10.21203227577892	-9.843522747707183	38.13984395791199	0.6656658532624299	0	0	0	35.69244792071071	-10.21203227577892	-9.843522747707183	38.13984395791199	0.6656658532624299	0	0	0	-6.661511454372241	-1.389195565086343	1.787628795765992	38.48161784944022	-2.442503301808133	3.684920370193951	30.71780309751946	136.3209360923003	0	0	78.2094541547475	1.647762422646466	-4.844076267555145	51.78105579153934	100.1330177247655	0	0
13.7799999999998	-7.562716048442725	-2.276328798989902	34.05572401324283	0	0.9399999999999999	0	35.69885747982865	-10.21153487635442	-9.843759009904076	38.14811316050253	0.6658101780741491	0	0	0	35.69885747982865	-10.21153487635442	-9.843759009904076	38.14811316050253	0.6658101780741491	0	0	0	-6.667892567127282	-1.328093695455615	1.652419522055093	38.53070335759647	-2.437208405282252	3.736291216246709	30.70415940927068	136.3312337576375	0	0	78.22481282956917	1.675832302856609	-5.168209819101005	48.95984101674988	100.6495035047549	0	0
13.79999999999979	-7.57329617113357	-2.265953143516887	33.75478472202405	0	0.9399999999999999	0	35.70449110135343	-10.21109795690789	-9.843966650389255	38.15537486719811	0.6659369187653011	0	0	0	35.70449110135343	-10.21109795690789	-9.843966650389255	38.15537486719811	0.6659369187653011	0	0	0	-6.6621687484841	-1.349159134719628	1.915405085856372	38.57712019964846	-2.377146681707409	3.811021559844983	30.71196564801994	136.2726019383245	0	0	79.12373591317785	2.702139985358484	-5.973434753244098	44.98444035962442	101.5450523614051	0	0
13.81999999999979	-7.586284647382798	-2.241490392399392	33.42730747579227	0	0.9399999999999999	0	35.70898633863274	-10.21075373620337	-9.84413099644039	38.16122750133803	0.6660390665009573	0	0	0	35.70898633863274	-10.21075373620337	-9.84413099644039	38.16122750133803	0.6660390665009573	0	0	0	-6.652018210363905	-1.347965709217547	2.160301070173731	38.60216962321689	-2.337532421439657	3.919174109431339	30.72096524865783	136.257908140781	0	0	79.46053411091489	3.022517923791302	-6.015861253900324	41.92138455787625	101.2684320402388	0	0
13.83999999999979	-7.583396902048839	-2.207240721858864	33.17984595643681	0	0.9399999999999999	0	35.71599596397059	-10.21021993505451	-9.844386379972391	38.17039122120779	0.6661990035844151	0	0	0	35.71599596397059	-10.21021993505451	-9.844386379972391	38.17039122120779	0.6661990035844151	0	0	0	-6.629235388284918	-1.326670019965508	2.308142245638261	38.56673889930231	-2.342110779237616	4.024525717803457	30.74584402351839	136.2026624639437	0	0	79.82469477772112	3.20264039168386	-6.386328704692578	37.56296223901766	101.7313681627841	0	0
13.85999999999979	-7.591988236741861	-2.181851599188418	33.10507719748038	0	0.9399999999999999	0	35.72145713713827	-10.20979538087622	-9.844588111804971	38.17739370687642	0.6663212200151565	0	0	0	35.72145713713827	-10.20979538087622	-9.844588111804971	38.17739370687642	0.6663212200151565	0	0	0	-6.621842950193776	-1.305227586287241	2.347346323349452	38.57082299377289	-2.323406578301327	3.970444898161657	30.77285078047657	136.2836537031725	0	0	80.22796427837152	3.529648477022217	-7.071822207601905	36.93932062321394	102.4421171311034	0	0
13.87999999999979	-7.6013365646395	-2.166097948119456	32.86370576191823	0	0.9399999999999999	0	35.7268149284459	-10.20938449813123	-9.84478431447905	38.18433837420587	0.6664424273255111	0	0	0	35.7268149284459	-10.20938449813123	-9.84478431447905	38.18433837420587	0.6664424273255111	0	0	0	-6.613933898181439	-1.317490314585629	2.559095466071627	38.54935515446702	-2.34756415985328	3.847114641689602	30.8267639382729	136.3951439742823	0	0	80.66758348833442	3.906664327120217	-7.723281746786609	31.79524593719665	101.5855982049148	0	0
13.89999999999979	-7.614011281959045	-2.15134738249534	32.64786603851076	0	0.9399999999999999	0	35.73184917923012	-10.20899694656763	-9.844969182972866	38.19083339186361	0.6665557867686138	0	0	0	35.73184917923012	-10.20899694656763	-9.844969182972866	38.19083339186361	0.6665557867686138	0	0	0	-6.609627533811977	-1.324037194559261	2.74804477601536	38.54086849992819	-2.364037190683648	3.822654548536859	30.84182780522434	136.4718416671128	0	0	81.05565342122937	4.279388532561061	-7.719017426600075	29.32791443865899	101.5406720371376	0	0
13.91999999999979	-7.606551576446684	-2.13798657436076	32.37748198020874	0	0.9399999999999999	0	35.73586155547275	-10.20869942997872	-9.84511299230113	38.19617408355042	0.6666489994228825	0	0	0	35.73586155547275	-10.20869942997872	-9.84511299230113	38.19617408355042	0.6666489994228825	0	0	0	-6.58862178523943	-1.344200280119527	2.997009540189354	38.51276541224143	-2.369847012959435	3.877395203116525	30.82372805699655	136.4409672739435	0	0	81.3976962563107	4.535751293732685	-7.818164200075428	26.99596227704957	102.1167458175344	0	0
13.93999999999979	-7.600413345156231	-2.111888146969578	32.33148515396889	0	0.9399999999999999	0	35.73900345604109	-10.20846158898429	-9.845227141681084	38.20028149667916	0.6667206873057187	0	0	0	35.73900345604109	-10.20846158898429	-9.845227141681084	38.20028149667916	0.6667206873057187	0	0	0	-6.568183479711148	-1.330673054350837	3.034914840970345	38.48819848689863	-2.383766079057437	4.015230140082277	30.78309809508743	136.379479382402	0	0	81.74881528901349	4.831098952298826	-8.249444704054739	25.59959947541378	102.6730883381967	0	0
13.95999999999979	-7.604344563219053	-2.111290066283887	32.26091279767761	0	0.9399999999999999	0	35.74463492723807	-10.20803189868385	-9.845432832502048	38.20758809934873	0.6668482115794375	0	0	0	35.74463492723807	-10.20803189868385	-9.845432832502048	38.20758809934873	0.6668482115794375	0	0	0	-6.570188710212379	-1.331332064540891	3.063416460192744	38.50916875258262	-2.356658608994879	4.149828175008911	30.78309522165469	136.2856275724229	0	0	82.0995082538266	5.040982189280905	-8.662207381174955	22.73697892497299	102.5875624484971	0	0
13.97999999999979	-7.602329002398758	-2.096421351977709	32.1763203360511	0	0.9399999999999999	0	35.74748183206091	-10.20781282509518	-9.845537417999086	38.21125077208978	0.666912137278192	0	0	0	35.74748183206091	-10.20781282509518	-9.845537417999086	38.21125077208978	0.666912137278192	0	0	0	-6.558522698424356	-1.328206467810178	3.12979494664385	38.49392052974039	-2.398636585506597	4.191157135527193	30.7713031380964	136.2564746698394	0	0	82.37072929551684	5.363362601154491	-8.605284602546559	21.6847791958305	102.3657236891417	0	0
